# xmcd
#
# Track frame offsets:
#	150
#	27010
#	39411
#	51863
#	66574
#	84646
#	95115
#	106406
#	121875
#	135016
#	150691
#	167511
#	181574
#	193440
#	205276
#	215683
#	222531
#	238550
#	249104
#	259907
#
# Disc length: 3622 seconds
#
# Revision: 1
# Processed by: cddbd v1.5.2PL0 Copyright (c) Steve Scherf et al.
# Submitted via: audiograbber 1.82.02
#
DISCID=1d0e2414
DTITLE=Australian Bush BA Tribute Vol 1-5 - Tribute Series No 1
DYEAR=2005
DGENRE=Country
TTITLE0=Peter Hayes - Hobo's Lullaby
TTITLE1=Hawking Brothers - Homestead On The Farm
TTITLE2=Rocky Emmett - Boom Of The Big Bass Drum
TTITLE3=Bob Hirst - Grandpa's Scars
TTITLE4=Alan Hawking - Snugglepie and Cuddlepot
TTITLE5=Lee Wakefield - Deep Deep In My Heart
TTITLE6=Bill Smith - There's Beauty In Our Land
TTITLE7=Dick Eckert - The Tramp's Mother
TTITLE8=Les Keats - Pub With No Beer
TTITLE9=Tex Banes - That's My Bushland Home
TTITLE10=Peter Hayes - My Heart Is Where The Roper Flows Tonight
TTITLE11=Hawking Brothers - Will Hank Williams Meet Jimmie Rogers
TTITLE12=Rocky Emmett - A Man Called Namatjira
TTITLE13=Bob Hirst - His Mates All Call Him Blue
TTITLE14=Alan Hawking - Too Many Tears
TTITLE15=Len Wakefield - You Take The Future and I'll Take The Past
TTITLE16=Bill Smith - The Erring Boomerang
TTITLE17=Dick Eckert - You'll Never Mis Your Mother Til She's Gone
TTITLE18=Les Keats - Pub With No Beer
TTITLE19=Tex Banes - Hayseed Yodel
EXTD=
EXTT0=
EXTT1=
EXTT2=
EXTT3=
EXTT4=
EXTT5=
EXTT6=
EXTT7=
EXTT8=
EXTT9=
EXTT10=
EXTT11=
EXTT12=
EXTT13=
EXTT14=
EXTT15=
EXTT16=
EXTT17=
EXTT18=
EXTT19=
PLAYORDER=
